<svg xmlns="http://www.w3.org/2000/svg" viewBox="0 0 1200 360" role="img" aria-label="ZestIQ">
  <defs>
    <linearGradient id="yellow" x1="0" x2="1" y1="0" y2="1"><stop stop-color="#FFD42A"/><stop offset="1" stop-color="#F4B900"/></linearGradient>
    <linearGradient id="navy" x1="0" x2="1" y1="0" y2="1"><stop stop-color="#14223D"/><stop offset="1" stop-color="#071126"/></linearGradient>
  </defs>
  <g transform="translate(30 26)">
    <circle cx="146" cy="146" r="122" fill="url(#yellow)" stroke="#0B1730" stroke-width="4"/>
    <circle cx="146" cy="146" r="92" fill="none" stroke="#0B1730" stroke-width="7"/>
    <path d="M146 54v184M62 146h168M82 82l128 128M210 82L82 210" stroke="#0B1730" stroke-width="6" stroke-linecap="round"/>
    <circle cx="146" cy="146" r="10" fill="#FFF7D7" stroke="#0B1730" stroke-width="4"/>
    <path d="M151 267c48-81 108-103 144-100-35 76-88 120-144 100Z" fill="url(#navy)"/>
    <path d="M167 46c24-36 62-43 87-17-22 32-58 43-87 17Z" fill="#69A84A"/>
    <path d="M174 47c19-8 39-18 60-34" fill="none" stroke="#0B1730" stroke-width="5" stroke-linecap="round"/>
  </g>
  <text x="330" y="220" fill="#0B1730" font-family="Arial Rounded MT Bold, Arial, Helvetica, sans-serif" font-size="192" font-weight="900" letter-spacing="-12">zest</text>
  <text x="780" y="220" fill="url(#yellow)" font-family="Arial Rounded MT Bold, Arial, Helvetica, sans-serif" font-size="192" font-weight="900" letter-spacing="-15">IQ</text>
</svg>
